<?xml version="1.0" encoding="utf-8"?>
<!-- Generator: Adobe Illustrator 19.0.0, SVG Export Plug-In . SVG Version: 6.00 Build 0)  -->
<svg version="1.2" baseProfile="tiny" id="Layer_1" xmlns="http://www.w3.org/2000/svg" xmlns:xlink="http://www.w3.org/1999/xlink"
	 x="0px" y="0px" viewBox="0 0 1000 892" xml:space="preserve">
<g>
	<path fill="#FEFEFE" d="M1,797C1,533.3,1,269.5,0.9,5.8c0-3.9,0.6-4.9,4.8-4.9C167.8,1,329.9,1,492,1c-0.2,0.7-0.8,0.9-1.5,1
		c-10,0.8-19.3,4.3-28,9.1c-18.3,10.1-32,25.1-42.4,43c-23.8,40.7-47.3,81.6-70.9,122.4c-23.9,41.4-47.7,82.9-71.6,124.3
		c-24.4,42.3-49,84.5-73.4,126.7c-20.2,35-40.2,70.1-60.4,105c-23.2,40.1-46.5,80.2-69.7,120.3c-15.6,27-31.3,53.9-46.8,80.9
		c-7.8,13.6-16.1,27-20.9,42C4.1,782.7,2.8,789.9,1,797z"/>
	<path fill="#FEFEFE" d="M510,1c162.2,0,324.3,0,486.5-0.1c3.7,0,4.6,0.8,4.6,4.6c-0.1,263.8-0.1,527.7-0.1,791.5
		c-0.3-0.3-0.8-0.7-0.9-1c-1.8-16.2-7.6-31-15.6-45c-12.5-21.9-25.1-43.7-37.7-65.6c-19.5-33.9-39.1-67.8-58.6-101.6
		c-20.1-34.9-40.3-69.7-60.5-104.5c-15.9-27.6-31.8-55.2-47.7-82.8c-20.1-34.9-40.3-69.7-60.5-104.6c-16.7-28.9-33.3-57.8-50-86.7
		c-19.5-33.7-38.8-67.5-58.6-101.1c-13.4-22.7-24.6-46.8-41.3-67.5c-9.9-12.2-21.8-22.2-36.3-28.8C525.8,4.6,517.8,3.2,510,1z"/>
	<path fill="#7E7E7D" d="M510,1c7.8,2.2,15.8,3.6,23.3,6.9c14.6,6.5,26.5,16.5,36.3,28.8c16.7,20.7,27.9,44.8,41.3,67.5
		c19.8,33.5,39.1,67.4,58.6,101.1c16.7,28.9,33.3,57.8,50,86.7c20.1,34.9,40.3,69.7,60.5,104.6c15.9,27.6,31.8,55.2,47.7,82.8
		c20.1,34.9,40.3,69.7,60.5,104.5c19.6,33.9,39.1,67.7,58.6,101.6c12.6,21.9,25.2,43.7,37.7,65.6c8,14,13.8,28.8,15.6,45
		c0,0.4,0.6,0.7,0.9,1c0,7.3,0,14.7,0,22c-1,0.3-0.9,1.2-1,2c-2,15-8.1,28.1-18,39.4c-17.2,19.5-39.8,27.9-65,30.6
		c-1.4,0.2-3.1-0.3-3,2c-275.7,0-551.3,0-827,0c-0.2-1.5-0.9-2-2.5-2.1c-8.4-0.4-16.6-2.4-24.6-5.1c-25.5-8.4-44.4-24.1-54.2-49.6
		C3.6,830.6,3.1,824.6,1,819c0-7.3,0-14.7,0-22c1.8-7.1,3.1-14.3,5.3-21.2c4.8-15.1,13-28.5,20.9-42c15.6-27,31.2-54,46.8-80.9
		c23.2-40.1,46.5-80.1,69.7-120.3c20.2-35,40.2-70.1,60.4-105c24.4-42.3,49-84.5,73.4-126.7c23.9-41.4,47.7-82.9,71.6-124.3
		c23.6-40.8,47.1-81.7,70.9-122.4c10.4-17.8,24.1-32.8,42.4-43c8.7-4.8,17.9-8.3,28-9.1c0.7-0.1,1.3-0.2,1.5-1C498,1,504,1,510,1z
		 M499.4,843c136,0,272,0,408,0c7.5,0,14.9-1.5,21.8-4.2c19.7-7.7,26.1-20.7,21.4-42.6c-2.4-11.3-8.1-21-13.7-30.7
		C918,732.7,899,699.9,880,667c-26.5-45.9-53-91.9-79.5-137.9c-25.4-43.9-50.9-87.8-76.3-131.7c-26.6-46.1-53.1-92.2-79.7-138.3
		c-34-58.9-68.1-117.7-102.1-176.6c-5.2-9-11.4-17.2-19.3-23.9c-11.6-9.7-26-12.5-39.9-3.1c-10,6.8-17.2,16-23.2,26.4
		c-42.3,73.1-84.5,146.3-126.8,219.5c-32.6,56.5-65.2,112.9-97.8,169.4c-31.9,55.1-63.7,110.3-95.6,165.4
		c-24.3,42-48.6,84.1-73,126.1c-6.8,11.8-14.1,23.4-16.4,37.1c-2.3,13.1-0.5,25.4,11.3,33.7c9,6.3,19.2,9.9,30.2,9.9
		C227.8,843,363.6,843,499.4,843z"/>
	<path fill="#FEFEFE" d="M914,893c-0.1-2.3,1.6-1.9,3-2c25.2-2.7,47.8-11.1,65-30.6c9.9-11.2,16-24.4,18-39.4c0.1-0.8,0-1.7,1-2
		c0,23.7,0,47.3,0.1,71c0,2.5-0.6,3.1-3.1,3.1C970,893,942,893,914,893z"/>
	<path fill="#FEFEFE" d="M1,819c2.1,5.6,2.6,11.6,4.7,17.3c9.9,25.6,28.8,41.2,54.2,49.6c8,2.6,16.1,4.7,24.6,5.1
		c1.6,0.1,2.3,0.6,2.5,2.1c-27.6,0-55.2,0-82.7,0.1c-2.7,0-3.4-0.5-3.3-3.3C1.1,866.2,1,842.6,1,819z"/>
	<path fill="#EFCF4B" d="M499.4,843c-135.8,0-271.7,0-407.5-0.1c-11,0-21.2-3.6-30.2-9.9c-11.9-8.3-13.6-20.6-11.3-33.7
		c2.4-13.7,9.6-25.3,16.4-37.1c24.4-42,48.6-84.1,73-126.1c31.9-55.1,63.8-110.2,95.6-165.4c32.6-56.4,65.2-112.9,97.8-169.4
		c42.3-73.2,84.5-146.3,126.8-219.5c6-10.3,13.2-19.6,23.2-26.4c13.8-9.4,28.3-6.6,39.9,3.1c8,6.7,14.1,14.9,19.3,23.9
		c34,58.9,68.1,117.7,102.1,176.6c26.6,46.1,53.1,92.2,79.7,138.3c25.4,43.9,50.9,87.8,76.3,131.7c26.5,45.9,53,91.9,79.5,137.9
		c19,32.8,38,65.6,56.9,98.5c5.6,9.8,11.3,19.5,13.7,30.7c4.7,21.9-1.7,34.9-21.4,42.6c-6.9,2.7-14.3,4.2-21.8,4.2
		C771.4,843,635.4,843,499.4,843z M501.1,195.2c-16.3,0-32.7,0.1-49-0.1c-4.1-0.1-5.3,1.1-5.2,5.3c0.4,29.5,1,58.9,2,88.4
		c0.7,19.9-0.3,39.9,1.1,59.8c0.8,11.1,0.2,22.3,0.8,33.4c1,19.6-0.2,39.2,1.2,58.8c0.8,11.3,0.1,22.6,0.8,33.9
		c1.2,21.1,0.4,42.2,1,63.3c0.7,24.8,1.9,49.5,1.3,74.3c-0.2,11.3,1.7,22.5,0.9,33.8c-0.2,3.2,1.2,4,4.1,3.9c3.2-0.2,6.3,0,9.5,0
		c20.7,0,41.3,0,62,0c2,0,4.7,0.8,4.5-2.9c-0.2-4,0.8-7.9,0.8-11.8c0.4-16.2,1.2-32.5,2-48.7c0.7-14.7,1.3-29.5,1.9-44.2
		c0.7-16.9,0.8-33.8,2.2-50.7c1.2-15.1,0.9-30.2,1.7-45.3c0.9-17,1.6-34.1,2.2-51.2c0.5-14.2,1.1-28.5,2-42.7
		c1.1-17.9,1.5-35.8,2.1-53.8c0.5-13.7,1.4-27.5,1.8-41.2c0.6-19.6,1.7-39.1,2.3-58.7c0.1-3.8-1.7-3.9-4.5-3.9
		C534.1,195.2,517.6,195.2,501.1,195.2z M445,744.5c-1.7,30.1,25.4,56.5,54.7,56.4c32.7-0.1,56.9-24.3,57.4-55
		c0.5-32.9-24.6-55.5-54.3-57.1C468.9,687,443,717.5,445,744.5z"/>
	<path fill="#7E7E7D" d="M501.1,195.2c16.5,0,33,0,49.5,0c2.8,0,4.6,0.1,4.5,3.9c-0.6,19.6-1.7,39.1-2.3,58.7
		c-0.4,13.7-1.3,27.4-1.8,41.2c-0.6,17.9-1,35.9-2.1,53.8c-0.8,14.2-1.5,28.4-2,42.7c-0.6,17.1-1.3,34.1-2.2,51.2
		c-0.8,15.1-0.5,30.2-1.7,45.3c-1.4,16.9-1.5,33.8-2.2,50.7c-0.6,14.7-1.2,29.5-1.9,44.2c-0.8,16.2-1.7,32.4-2,48.7
		c-0.1,3.9-1.1,7.9-0.8,11.8c0.2,3.7-2.5,2.9-4.5,2.9c-20.7,0-41.3,0-62,0c-3.2,0-6.3-0.1-9.5,0c-2.9,0.2-4.3-0.6-4.1-3.9
		c0.8-11.3-1.2-22.5-0.9-33.8c0.5-24.8-0.6-49.6-1.3-74.3c-0.6-21.1,0.2-42.2-1-63.3c-0.7-11.3,0-22.7-0.8-33.9
		c-1.4-19.6-0.2-39.2-1.2-58.8c-0.6-11.2-0.1-22.3-0.8-33.4c-1.4-19.9-0.4-39.9-1.1-59.8c-1-29.4-1.5-58.9-2-88.4
		c-0.1-4.3,1.1-5.4,5.2-5.3C468.4,195.3,484.7,195.2,501.1,195.2z"/>
	<path fill="#7E7E7D" d="M445,744.5c-2-27,23.9-57.5,57.7-55.7c29.7,1.6,54.8,24.2,54.3,57.1c-0.5,30.7-24.6,55-57.4,55
		C470.4,801,443.3,774.6,445,744.5z"/>
</g>
</svg>
